<svg width="72" height="24" viewBox="0 0 72 24" fill="none" xmlns="http://www.w3.org/2000/svg">
<path d="M20.5771 11.9162C20.5771 8.2245 20.5828 4.5299 20.5686 0.841C20.5686 0.3278 20.9078 0.00860023 21.421 0.00860023C22.3703 0.00290023 23.3253 2.34693e-07 24.2746 0.00860023C24.8134 0.0143002 25.127 0.342101 25.1213 0.846701C25.107 4.1137 25.1127 7.3863 25.1127 10.6533V10.8329C25.1184 11.1949 25.2781 11.4601 25.6116 11.6026C25.9337 11.7394 26.2359 11.6682 26.4982 11.3888C27.456 10.3625 28.411 9.3334 29.3632 8.3043C29.9476 7.6714 30.5406 7.0471 31.1193 6.4114C31.3388 6.1719 31.5925 6.0579 31.9203 6.0636C33.1148 6.0721 34.315 6.0721 35.5094 6.0636C35.8629 6.0636 36.1423 6.1719 36.2906 6.4997C36.4416 6.839 36.3704 7.1412 36.1167 7.4177C34.3235 9.4018 32.5361 11.3888 30.7458 13.3729C30.6033 13.5326 30.4636 13.6979 30.3524 13.8804C30.1529 14.2025 30.1529 14.5189 30.3382 14.8468C30.5377 15.2003 30.8199 15.4853 31.0993 15.7733C33.2687 18.0026 35.4439 20.2319 37.619 22.4555C37.8813 22.7263 37.9582 23.0228 37.8271 23.3706C37.7017 23.6955 37.4537 23.8438 37.046 23.8438C35.7175 23.8438 34.3862 23.8381 33.0578 23.8438C32.7585 23.8438 32.5275 23.7497 32.3137 23.5216C30.3838 21.4948 28.4395 19.4793 26.501 17.4609C26.2245 17.1701 25.9166 17.096 25.5973 17.23C25.2752 17.3583 25.107 17.632 25.107 18.0282V22.9971C25.107 23.533 24.8362 23.8096 24.3059 23.8124H21.3868C20.8024 23.8124 20.5743 23.5815 20.5743 23.0057L20.5771 11.9162ZM38.6909 8.2016C38.6909 5.7585 38.6994 3.3126 38.6823 0.869499C38.6766 0.316399 38.9988 0 39.5604 0C40.484 0.0057 41.402 0 42.3228 0C42.8616 0 43.1694 0.3022 43.1694 0.8381C43.1751 2.2635 43.1751 3.6917 43.178 5.1171C43.178 5.7329 43.4944 6.0522 44.1045 6.0522H47.9388C48.3436 6.0522 48.6087 6.2717 48.6885 6.6679C48.7284 6.8589 48.7142 7.0499 48.7199 7.2466V9.6099C48.7199 10.2285 48.4434 10.5051 47.8247 10.5051C46.5989 10.5051 45.3731 10.4994 44.1473 10.4994C43.5201 10.4994 43.1979 10.8158 43.1922 11.4344C43.1865 12.6916 43.1666 13.9431 43.1837 15.2003C43.2094 17.116 44.6775 18.8806 46.5847 19.331C47.1463 19.465 47.7164 19.4878 48.2866 19.408C48.7512 19.3424 49.0876 19.5904 49.1418 20.058C49.2587 21.0529 49.3641 22.0507 49.4668 23.0456C49.5067 23.4247 49.2302 23.7725 48.8396 23.8352C47.7877 24.0148 46.7357 23.9521 45.7009 23.7183C42.0063 22.8916 39.2924 19.9382 38.7622 16.1952C38.708 15.8246 38.6909 15.454 38.6909 15.0862V8.2016ZM71.4946 19.8755C71.4946 19.5363 71.2352 19.2997 70.896 19.2826C70.665 19.274 70.437 19.2655 70.2061 19.2455C69.0259 19.1571 68.4186 18.6041 68.2048 17.441C68.0395 16.5544 68.0452 15.6535 68.0395 14.7527C68.0309 12.1671 68.0338 9.5814 68.0338 6.9958C68.0338 6.9188 68.0338 6.8475 68.0281 6.7734C67.9967 6.3544 67.6945 6.055 67.2698 6.055C66.2749 6.0493 65.2771 6.0493 64.2822 6.055C63.8318 6.055 63.5125 6.3772 63.4925 6.8219C63.4868 6.9302 63.4925 7.0414 63.4925 7.1697C63.407 7.1241 63.3414 7.0927 63.2787 7.0613C61.4827 6.1177 59.5784 5.8127 57.5772 6.1462C52.4829 7.0015 49.1617 12.1043 50.4275 17.1103C52.0353 23.4618 59.6497 25.9904 64.744 21.8568C64.8637 21.7599 64.9122 21.7627 65.0063 21.8939C65.5308 22.6436 66.2236 23.1853 67.0845 23.5131C68.0338 23.8751 69.023 23.9236 70.0265 23.8523C70.3828 23.8267 70.7363 23.7754 71.0613 23.6129C71.2922 23.496 71.4804 23.3221 71.4861 23.057C71.506 21.9965 71.5003 20.936 71.4946 19.8755ZM59.0995 19.4165C56.6222 19.408 54.6523 17.3925 54.6609 14.8667C54.6694 12.4778 56.6935 10.4937 59.1223 10.4994C61.6139 10.5051 63.5809 12.5063 63.5752 15.0378C63.5667 17.4239 61.5284 19.4194 59.0995 19.4165ZM9.45061 6.018C4.71835 6.0265 0.607548 9.6812 0.50207 14.7584C0.393741 20.0095 4.553 23.7668 9.1969 23.8837C14.1629 24.0091 18.2766 20.0893 18.3621 15.1376C18.4448 10.0974 14.4965 6.075 9.45061 6.018ZM9.41926 19.4165C6.97615 19.4165 4.97207 17.4096 4.96636 14.958C4.96066 12.5034 6.9619 10.4994 9.42781 10.4908C11.888 10.4851 13.8807 12.4835 13.8807 14.9523C13.8807 17.421 11.888 19.4165 9.41926 19.4165Z" fill="#050038"/>
</svg>
