<svg width="19" height="19" viewBox="0 0 19 19" fill="none" xmlns="http://www.w3.org/2000/svg">
<path d="M4.82454 9.667C4.82454 12.5021 7.1336 14.8112 9.96874 14.8112C11.1995 14.811 12.3891 14.3683 13.3205 13.5637L15.2673 16.9407C13.7301 18.0657 11.8738 18.6705 9.96874 18.667C4.9978 18.667 0.96875 14.6379 0.96875 9.667C0.96875 4.696 4.9978 0.666992 9.96874 0.666992C10.56 0.666912 11.1497 0.724942 11.7296 0.840252L9.96874 4.5228C7.1336 4.5228 4.82454 6.8318 4.82454 9.667ZM16.6208 5.9818H13.9305C14.003 5.5596 14.2645 5.3234 14.7936 5.0556L15.2882 4.8036C16.1735 4.35 16.646 3.83651 16.646 2.99857C16.646 2.4725 16.4412 2.05668 16.0348 1.75741C15.6284 1.45815 15.1497 1.31009 14.589 1.31009C14.1552 1.30499 13.7292 1.42651 13.3636 1.65976C12.995 1.88657 12.7208 2.17953 12.5507 2.54495L13.3288 3.32619C13.6312 2.71506 14.0691 2.41579 14.6456 2.41579C15.134 2.41579 15.4332 2.66781 15.4332 3.01747C15.4332 3.31044 15.2882 3.553 14.7275 3.83651L14.4094 3.99087C13.7194 4.3405 13.2407 4.7406 12.9635 5.1942C12.6863 5.6479 12.5507 6.218 12.5507 6.9079V7.0969H16.6208V5.9818ZM16.2635 8.3822H11.8091L9.58203 12.238H14.0364L16.2635 16.0969L18.4907 12.238L16.2635 8.3822Z" fill="#050038"/>
</svg>
